<?xml version="1.0" encoding="utf-8"?>
<!-- Generator: Adobe Illustrator 28.3.0, SVG Export Plug-In . SVG Version: 6.00 Build 0)  -->
<svg version="1.1" id="Layer_1" xmlns="http://www.w3.org/2000/svg" xmlns:xlink="http://www.w3.org/1999/xlink" x="0px" y="0px"
	 viewBox="0 0 162 41" style="enable-background:new 0 0 162 41;" xml:space="preserve">
<style type="text/css">
	.st0{fill:#EE4C2C;}
	.st1{fill:#252525;}
</style>
<g>
	<path class="st0" d="M22.1,9.7L20,11.8c3.5,3.5,3.5,9.2,0,12.7s-9.2,3.5-12.7,0s-3.5-9.2,0-12.7l0,0l5.6-5.6l0.7-0.8l0,0V1.2
		L5.1,9.7c-4.7,4.7-4.7,12.2,0,16.9s12.2,4.7,16.9,0C26.8,21.9,26.8,14.3,22.1,9.7z"/>
	<circle class="st0" cx="17.9" cy="7.5" r="1.6"/>
</g>
<g>
	<g>
		<path class="st1" d="M43.9,20.4h-3.6v9.3h-2.7V3.3c0,0,6.3,0,6.6,0c7,0,10.3,3.4,10.3,8.3C54.5,17.4,50.4,20.3,43.9,20.4z
			 M44.1,5.8c-0.3,0-3.9,0-3.9,0v12.1l3.8-0.1c5-0.1,7.7-2.1,7.7-6.2C51.7,7.9,49.1,5.8,44.1,5.8z"/>
		<path class="st1" d="M66.7,29.6l-1.6,4.2c-1.8,4.7-3.6,6.1-6.3,6.1c-1.5,0-2.6-0.4-3.8-0.9l0.8-2.4c0.9,0.5,1.9,0.8,3,0.8
			c1.5,0,2.6-0.8,4-4.5l1.3-3.4l-7.5-19.1h2.8l6.1,16l6-16h2.7L66.7,29.6z"/>
		<path class="st1" d="M83.2,5.9v23.9h-2.7V5.9h-9.3V3.3h21.3v2.5L83.2,5.9L83.2,5.9z"/>
		<path class="st1" d="M100.1,30.3c-5.4,0-9.4-4-9.4-10.2s4.1-10.3,9.6-10.3c5.4,0,9.3,4,9.3,10.2S105.5,30.3,100.1,30.3z
			 M100.2,12.2c-4.1,0-6.8,3.3-6.8,7.8c0,4.7,2.8,7.9,6.9,7.9s6.8-3.3,6.8-7.8C107.1,15.4,104.3,12.2,100.2,12.2z"/>
		<path class="st1" d="M116.3,29.8h-2.6V10.4l2.6-0.5V14c1.3-2.5,3.2-4.1,5.7-4.1c1.3,0,2.5,0.4,3.4,0.9l-0.7,2.5
			c-0.8-0.5-1.9-0.8-3-0.8c-2,0-3.9,1.5-5.5,5v12.3H116.3z"/>
		<path class="st1" d="M135.7,30.3c-5.8,0-9.5-4.2-9.5-10.2c0-6.1,4-10.3,9.5-10.3c2.4,0,4.4,0.6,6.1,1.7l-0.7,2.4
			c-1.5-1-3.3-1.6-5.4-1.6c-4.2,0-6.8,3.1-6.8,7.7c0,4.7,2.8,7.8,6.9,7.8c1.9,0,3.9-0.6,5.4-1.6l0.5,2.4
			C140,29.7,137.9,30.3,135.7,30.3z"/>
		<path class="st1" d="M158,29.8V17.3c0-3.4-1.4-4.9-4.1-4.9c-2.2,0-4.4,1.1-6,2.8v14.7h-2.6V1.3l2.6-0.5c0,0,0,12.1,0,12.2
			c2-2,4.6-3.1,6.7-3.1c3.8,0,6.1,2.4,6.1,6.6v13.3C160.7,29.8,158,29.8,158,29.8z"/>
	</g>
</g>
</svg>
